<?xml version="1.0" standalone="no"?>
<!DOCTYPE svg PUBLIC "-//W3C//DTD SVG 20010904//EN"
 "http://www.w3.org/TR/2001/REC-SVG-20010904/DTD/svg10.dtd">
<svg version="1.0" xmlns="http://www.w3.org/2000/svg"
 width="1200.000000pt" height="1200.000000pt" viewBox="0 0 1200.000000 1200.000000"
 preserveAspectRatio="xMidYMid meet">
<metadata>
Created by potrace 1.14, written by Peter Selinger 2001-2017
</metadata>
<g transform="translate(0.000000,1200.000000) scale(0.100000,-0.100000)"
fill="#000000" stroke="none">
<path d="M3183 9165 c-177 -48 -308 -181 -354 -360 -11 -40 -13 -381 -14
-1652 l0 -1603 -522 0 c-288 0 -523 -4 -523 -9 0 -4 8 -19 18 -32 10 -13 66
-94 123 -179 98 -143 157 -230 264 -385 67 -96 68 -101 48 -132 -10 -16 -20
-30 -23 -33 -4 -3 -41 -57 -84 -120 -78 -116 -179 -264 -282 -413 -31 -44 -58
-86 -61 -93 -4 -11 73 -13 449 -13 249 0 485 0 523 0 l70 -1 1 -448 c0 -401 2
-455 18 -515 41 -150 165 -281 316 -333 54 -18 131 -19 2840 -19 1532 0 2799
3 2815 6 172 37 329 195 366 370 8 36 12 199 12 497 1 302 4 442 11 443 6 0
242 0 524 0 281 0 512 3 512 7 0 6 -106 164 -240 357 -23 33 -84 122 -136 198
l-95 138 22 36 c13 20 78 116 145 214 206 300 304 445 304 452 0 4 -235 7
-523 7 l-523 0 -1 1583 c0 870 -3 1601 -6 1625 -18 120 -55 191 -147 283 -52
51 -84 73 -146 100 l-79 34 -2785 2 c-2362 2 -2793 0 -2837 -12z m5037 -1410
c1 -38 1 -2164 0 -2187 0 -17 -35 -18 -587 -18 l-588 0 0 1115 0 1114 25 3
c14 2 278 3 587 3 l563 0 0 -30z m-1634 -1627 l2 -578 -589 0 -589 0 0 578 0
577 588 0 587 0 1 -577z m-1635 -463 c0 -8 1 -36 2 -62 l1 -48 -590 -3 -589
-2 2 57 c1 32 2 61 2 65 1 11 144 13 679 10 426 -2 492 -4 493 -17z"/>
</g>
</svg>
